<svg width="29" height="29" viewBox="0 0 29 29" fill="none" xmlns="http://www.w3.org/2000/svg">
<path d="M14.5 27C21.4036 27 27 21.4036 27 14.5C27 7.59644 21.4036 2 14.5 2C7.59644 2 2 7.59644 2 14.5C2 21.4036 7.59644 27 14.5 27Z" stroke="white" stroke-width="2.5"/>
<path d="M14.5 20.75V13.25V20.75Z" fill="white"/>
<path d="M14.5 20.75V13.25" stroke="white" stroke-width="2.5" stroke-linecap="round"/>
<mask id="path-4-inside-1_26_170" fill="white">
<path d="M14.5 8.25C15.1904 8.25 15.75 8.80964 15.75 9.5C15.75 10.1904 15.1904 10.75 14.5 10.75C13.8096 10.75 13.25 10.1904 13.25 9.5C13.25 8.80964 13.8096 8.25 14.5 8.25Z"/>
</mask>
<path d="M14.5 8.25C15.1904 8.25 15.75 8.80964 15.75 9.5C15.75 10.1904 15.1904 10.75 14.5 10.75C13.8096 10.75 13.25 10.1904 13.25 9.5C13.25 8.80964 13.8096 8.25 14.5 8.25Z" fill="white"/>
<path d="M13.25 9.5C13.25 10.1904 13.8096 10.75 14.5 10.75V5.75C16.5711 5.75 18.25 7.42893 18.25 9.5H13.25ZM14.5 10.75C15.1904 10.75 15.75 10.1904 15.75 9.5H10.75C10.75 7.42893 12.4289 5.75 14.5 5.75V10.75ZM15.75 9.5C15.75 8.80964 15.1904 8.25 14.5 8.25V13.25C12.4289 13.25 10.75 11.5711 10.75 9.5H15.75ZM14.5 8.25C13.8096 8.25 13.25 8.80964 13.25 9.5H18.25C18.25 11.5711 16.5711 13.25 14.5 13.25V8.25Z" fill="white" mask="url(#path-4-inside-1_26_170)"/>
</svg>
