<svg width="196" height="50" viewBox="0 0 196 50" fill="none" xmlns="http://www.w3.org/2000/svg">
<path d="M60.37 13.76H65.38L75.67 29.54H75.73V13.76H79.51V35H74.71L64.21 18.71H64.15V35H60.37V13.76ZM102.007 27.2C102.007 28.48 101.787 29.64 101.347 30.68C100.907 31.7 100.307 32.57 99.547 33.29C98.787 34.01 97.887 34.57 96.847 34.97C95.807 35.35 94.677 35.54 93.457 35.54C92.237 35.54 91.107 35.35 90.067 34.97C89.027 34.57 88.117 34.01 87.337 33.29C86.577 32.57 85.977 31.7 85.537 30.68C85.117 29.64 84.907 28.48 84.907 27.2V13.76H88.687V27.08C88.687 27.6 88.767 28.15 88.927 28.73C89.087 29.29 89.347 29.81 89.707 30.29C90.087 30.77 90.577 31.17 91.177 31.49C91.797 31.79 92.557 31.94 93.457 31.94C94.357 31.94 95.107 31.79 95.707 31.49C96.327 31.17 96.817 30.77 97.177 30.29C97.557 29.81 97.827 29.29 97.987 28.73C98.147 28.15 98.227 27.6 98.227 27.08V13.76H102.007V27.2Z" fill="#C8102E"/>
<path d="M105.387 23.66V20.6H108.357V16.43H111.957V20.6H115.917V23.66H111.957V29.96C111.957 30.68 112.087 31.25 112.347 31.67C112.627 32.09 113.167 32.3 113.967 32.3C114.287 32.3 114.637 32.27 115.017 32.21C115.397 32.13 115.697 32.01 115.917 31.85V34.88C115.537 35.06 115.067 35.18 114.507 35.24C113.967 35.32 113.487 35.36 113.067 35.36C112.107 35.36 111.317 35.25 110.697 35.03C110.097 34.83 109.617 34.52 109.257 34.1C108.917 33.66 108.677 33.12 108.537 32.48C108.417 31.84 108.357 31.1 108.357 30.26V23.66H105.387ZM119.478 20.6H123.078V22.88H123.138C123.538 22.04 124.108 21.39 124.848 20.93C125.588 20.47 126.438 20.24 127.398 20.24C127.618 20.24 127.828 20.26 128.028 20.3C128.248 20.34 128.468 20.39 128.688 20.45V23.93C128.388 23.85 128.088 23.79 127.788 23.75C127.508 23.69 127.228 23.66 126.948 23.66C126.108 23.66 125.428 23.82 124.908 24.14C124.408 24.44 124.018 24.79 123.738 25.19C123.478 25.59 123.298 25.99 123.198 26.39C123.118 26.79 123.078 27.09 123.078 27.29V35H119.478V20.6ZM131.948 20.6H135.548V35H131.948V20.6ZM131.438 15.71C131.438 15.13 131.648 14.63 132.068 14.21C132.508 13.77 133.058 13.55 133.718 13.55C134.378 13.55 134.928 13.76 135.368 14.18C135.828 14.58 136.058 15.09 136.058 15.71C136.058 16.33 135.828 16.85 135.368 17.27C134.928 17.67 134.378 17.87 133.718 17.87C133.058 17.87 132.508 17.66 132.068 17.24C131.648 16.8 131.438 16.29 131.438 15.71ZM138.751 23.66V20.6H141.721V16.43H145.321V20.6H149.281V23.66H145.321V29.96C145.321 30.68 145.451 31.25 145.711 31.67C145.991 32.09 146.531 32.3 147.331 32.3C147.651 32.3 148.001 32.27 148.381 32.21C148.761 32.13 149.061 32.01 149.281 31.85V34.88C148.901 35.06 148.431 35.18 147.871 35.24C147.331 35.32 146.851 35.36 146.431 35.36C145.471 35.36 144.681 35.25 144.061 35.03C143.461 34.83 142.981 34.52 142.621 34.1C142.281 33.66 142.041 33.12 141.901 32.48C141.781 31.84 141.721 31.1 141.721 30.26V23.66H138.751ZM152.93 20.6H156.53V35H152.93V20.6ZM152.42 15.71C152.42 15.13 152.63 14.63 153.05 14.21C153.49 13.77 154.04 13.55 154.7 13.55C155.36 13.55 155.91 13.76 156.35 14.18C156.81 14.58 157.04 15.09 157.04 15.71C157.04 16.33 156.81 16.85 156.35 17.27C155.91 17.67 155.36 17.87 154.7 17.87C154.04 17.87 153.49 17.66 153.05 17.24C152.63 16.8 152.42 16.29 152.42 15.71ZM160.693 27.8C160.693 26.66 160.893 25.63 161.293 24.71C161.713 23.77 162.273 22.97 162.973 22.31C163.673 21.65 164.503 21.14 165.463 20.78C166.423 20.42 167.443 20.24 168.523 20.24C169.603 20.24 170.623 20.42 171.583 20.78C172.543 21.14 173.373 21.65 174.073 22.31C174.773 22.97 175.323 23.77 175.723 24.71C176.143 25.63 176.353 26.66 176.353 27.8C176.353 28.94 176.143 29.98 175.723 30.92C175.323 31.84 174.773 32.63 174.073 33.29C173.373 33.95 172.543 34.46 171.583 34.82C170.623 35.18 169.603 35.36 168.523 35.36C167.443 35.36 166.423 35.18 165.463 34.82C164.503 34.46 163.673 33.95 162.973 33.29C162.273 32.63 161.713 31.84 161.293 30.92C160.893 29.98 160.693 28.94 160.693 27.8ZM164.293 27.8C164.293 28.36 164.383 28.9 164.563 29.42C164.763 29.94 165.043 30.4 165.403 30.8C165.783 31.2 166.233 31.52 166.753 31.76C167.273 32 167.863 32.12 168.523 32.12C169.183 32.12 169.773 32 170.293 31.76C170.813 31.52 171.253 31.2 171.613 30.8C171.993 30.4 172.273 29.94 172.453 29.42C172.653 28.9 172.753 28.36 172.753 27.8C172.753 27.24 172.653 26.7 172.453 26.18C172.273 25.66 171.993 25.2 171.613 24.8C171.253 24.4 170.813 24.08 170.293 23.84C169.773 23.6 169.183 23.48 168.523 23.48C167.863 23.48 167.273 23.6 166.753 23.84C166.233 24.08 165.783 24.4 165.403 24.8C165.043 25.2 164.763 25.66 164.563 26.18C164.383 26.7 164.293 27.24 164.293 27.8ZM180.474 20.6H183.894V22.91H183.954C184.294 22.19 184.814 21.57 185.514 21.05C186.214 20.51 187.164 20.24 188.364 20.24C189.324 20.24 190.134 20.4 190.794 20.72C191.474 21.04 192.024 21.46 192.444 21.98C192.864 22.5 193.164 23.1 193.344 23.78C193.524 24.46 193.614 25.17 193.614 25.91V35H190.014V27.71C190.014 27.31 189.994 26.87 189.954 26.39C189.914 25.89 189.804 25.43 189.624 25.01C189.464 24.57 189.204 24.21 188.844 23.93C188.484 23.63 187.994 23.48 187.374 23.48C186.774 23.48 186.264 23.58 185.844 23.78C185.444 23.98 185.104 24.25 184.824 24.59C184.564 24.93 184.374 25.32 184.254 25.76C184.134 26.2 184.074 26.66 184.074 27.14V35H180.474V20.6Z" fill="white"/>
<g clip-path="url(#clip0_24_257)">
<path d="M46.583 43.1111H46.0321C44.9494 43.1111 44.0685 42.2302 44.0685 41.1477V8.39478C44.0685 8.33324 44.094 6.88867 46.3074 6.88867C48.8852 6.88867 50.0002 14.3815 50.0002 18.2035C50.0002 22.7981 48.7763 27.0224 48.5466 27.7737V41.1475C48.5464 42.2301 47.6657 43.1111 46.583 43.1111ZM45.5395 28.3979V41.1477C45.5395 41.4191 45.7604 41.64 46.0321 41.64H46.583C46.8544 41.64 47.0756 41.4194 47.0756 41.1477V28.3979H45.5395ZM45.5395 26.9268H47.2599C47.6247 25.6198 48.5292 21.9956 48.5292 18.2037C48.5292 13.0806 47.0425 8.65712 46.2881 8.35997C45.833 8.36266 45.6124 8.45313 45.5395 8.50511V26.9268ZM4.20034 43.1111C3.45378 43.1111 2.7592 42.8585 2.3424 42.4356C2.06315 42.1522 1.91236 41.7955 1.91776 41.4311L2.21466 21.2714C0.92578 20.5712 0.0326077 19.2153 0.000489833 17.6604C-5.17175e-07 17.6452 -5.17175e-07 17.6295 0.000489833 17.6136V17.6116V17.6097V17.6082V17.6055L0.420965 8.36119C0.439353 7.95543 0.785785 7.64406 1.1891 7.65999C1.59486 7.67838 1.90893 8.02261 1.89054 8.42837L1.50537 16.9036H2.32646L2.5204 8.37836C2.52971 7.97235 2.871 7.64675 3.27235 7.65975C3.67836 7.66882 4.00027 8.00569 3.99096 8.4117L3.79776 16.9036H4.60291L4.40972 8.4117C4.4004 8.00569 4.72207 7.66882 5.12832 7.65975C5.53507 7.63915 5.8712 7.9721 5.88028 8.37836L6.07421 16.9036H6.8953L6.50989 8.42862C6.4915 8.02285 6.80557 7.67863 7.21133 7.66024C7.61661 7.64013 7.96108 7.95567 7.97946 8.36144L8.39994 17.6055V17.6067C8.40067 17.6249 8.40092 17.6428 8.40043 17.6609C8.36831 19.2158 7.47514 20.5714 6.18625 21.2719L6.48316 41.4316C6.48855 41.7957 6.33777 42.1524 6.05852 42.4361C5.64148 42.8585 4.94689 43.1111 4.20034 43.1111ZM3.38905 41.4029C3.46285 41.4799 3.73818 41.64 4.20034 41.64C4.66249 41.64 4.93782 41.4802 5.01162 41.4029L4.72256 21.7769H3.67836L3.38905 41.4029ZM1.59143 18.3746C1.93713 19.4892 2.9828 20.3061 4.20034 20.3061C5.41788 20.3061 6.4633 19.4892 6.80924 18.3746H5.35683H5.35339H3.04752H3.04385H1.59143ZM25.3222 40.6806C16.2585 40.6806 8.88465 33.3068 8.88465 24.2429C8.88465 15.1793 16.2585 7.80538 25.3222 7.80538C34.3858 7.80538 41.7597 15.1793 41.7597 24.2429C41.7597 33.3068 34.3858 40.6806 25.3222 40.6806ZM25.3222 9.27643C17.0696 9.27643 10.3557 15.9903 10.3557 24.2429C10.3557 32.4955 17.0696 39.2096 25.3222 39.2096C33.5747 39.2096 40.2886 32.4955 40.2886 24.2429C40.2886 15.9903 33.5747 9.27643 25.3222 9.27643ZM25.3222 36.2422C18.7059 36.2422 13.3231 30.8594 13.3231 24.2431C13.3231 17.6268 18.7059 12.244 25.3222 12.244C31.9384 12.244 37.3213 17.6268 37.3213 24.2431C37.3213 30.8594 31.9384 36.2422 25.3222 36.2422ZM25.3222 13.7148C19.5169 13.7148 14.7941 18.4379 14.7941 24.2429C14.7941 30.0479 19.5172 34.7709 25.3222 34.7709C31.1272 34.7709 35.8502 30.0479 35.8502 24.2429C35.8502 18.4379 31.1272 13.7148 25.3222 13.7148Z" fill="white"/>
</g>
<defs>
<clipPath id="clip0_24_257">
<path d="M0 0H50V40C50 45.5228 45.5228 50 40 50H10C4.47715 50 0 45.5228 0 40V0Z" fill="white"/>
</clipPath>
</defs>
</svg>
